<svg viewBox="0 0 640 480" xmlns="http://www.w3.org/2000/svg">
  <defs>
    <linearGradient id="bg2" x1="0" y1="0" x2="0" y2="1">
      <stop offset="0%" stop-color="#FBF3EA"/>
      <stop offset="100%" stop-color="#F1E1CB"/>
    </linearGradient>
    <linearGradient id="cupGlass" x1="0" y1="0" x2="0" y2="1">
      <stop offset="0%" stop-color="#ffffff" stop-opacity="0.55"/>
      <stop offset="100%" stop-color="#ffffff" stop-opacity="0.15"/>
    </linearGradient>
  </defs>
  <rect width="640" height="480" fill="url(#bg2)"/>
  <rect x="0" y="400" width="640" height="80" fill="#E9D2AE"/>

  <!--
    Translucent sauce cups (соусницы): trapezoid body narrower at base,
    wider rim, visible colored sauce filling the lower portion, thin lid rim on top,
    subtle glossy highlight stroke — unmistakably little takeout sauce containers.
  -->

  <!-- reusable cup, built with local coords, apex at (0,0) top-center, height ~46, top width ~40, base width ~28 -->
  <g id="cupTemplate"></g>

  <!-- ROW 1 (base, widest) -->
  <g transform="translate(400 320)">
    <!-- cup -->
    <g transform="translate(-108 0)">
      <path d="M-20 0 L20 0 L14 46 L-14 46 Z" fill="url(#cupGlass)" stroke="#D8CFC2" stroke-width="1.5"/>
      <path d="M-14 46 L14 46 L11 22 L-11 22 Z" fill="#B4483F" opacity="0.85"/>
      <ellipse cx="0" cy="0" rx="20" ry="4" fill="#fff" stroke="#D8CFC2" stroke-width="1.5"/>
      <path d="M-16 4 L-12 40" stroke="#fff" stroke-width="1.5" opacity="0.6"/>
    </g>
    <g transform="translate(-72 0)">
      <path d="M-20 0 L20 0 L14 46 L-14 46 Z" fill="url(#cupGlass)" stroke="#D8CFC2" stroke-width="1.5"/>
      <path d="M-14 46 L14 46 L10 18 L-10 18 Z" fill="#E7B84B" opacity="0.85"/>
      <ellipse cx="0" cy="0" rx="20" ry="4" fill="#fff" stroke="#D8CFC2" stroke-width="1.5"/>
      <path d="M-16 4 L-12 40" stroke="#fff" stroke-width="1.5" opacity="0.6"/>
    </g>
    <g transform="translate(-36 0)">
      <path d="M-20 0 L20 0 L14 46 L-14 46 Z" fill="url(#cupGlass)" stroke="#D8CFC2" stroke-width="1.5"/>
      <path d="M-14 46 L14 46 L11 26 L-11 26 Z" fill="#6FA65C" opacity="0.85"/>
      <ellipse cx="0" cy="0" rx="20" ry="4" fill="#fff" stroke="#D8CFC2" stroke-width="1.5"/>
      <path d="M-16 4 L-12 40" stroke="#fff" stroke-width="1.5" opacity="0.6"/>
    </g>
    <g transform="translate(0 0)">
      <path d="M-20 0 L20 0 L14 46 L-14 46 Z" fill="url(#cupGlass)" stroke="#D8CFC2" stroke-width="1.5"/>
      <path d="M-14 46 L14 46 L10 20 L-10 20 Z" fill="#F1C6D0" opacity="0.9"/>
      <ellipse cx="0" cy="0" rx="20" ry="4" fill="#fff" stroke="#D8CFC2" stroke-width="1.5"/>
      <path d="M-16 4 L-12 40" stroke="#fff" stroke-width="1.5" opacity="0.6"/>
    </g>
    <g transform="translate(36 0)">
      <path d="M-20 0 L20 0 L14 46 L-14 46 Z" fill="url(#cupGlass)" stroke="#D8CFC2" stroke-width="1.5"/>
      <path d="M-14 46 L14 46 L11 24 L-11 24 Z" fill="#C9A24B" opacity="0.85"/>
      <ellipse cx="0" cy="0" rx="20" ry="4" fill="#fff" stroke="#D8CFC2" stroke-width="1.5"/>
      <path d="M-16 4 L-12 40" stroke="#fff" stroke-width="1.5" opacity="0.6"/>
    </g>
    <g transform="translate(72 0)">
      <path d="M-20 0 L20 0 L14 46 L-14 46 Z" fill="url(#cupGlass)" stroke="#D8CFC2" stroke-width="1.5"/>
      <path d="M-14 46 L14 46 L10 16 L-10 16 Z" fill="#B4483F" opacity="0.85"/>
      <ellipse cx="0" cy="0" rx="20" ry="4" fill="#fff" stroke="#D8CFC2" stroke-width="1.5"/>
      <path d="M-16 4 L-12 40" stroke="#fff" stroke-width="1.5" opacity="0.6"/>
    </g>
  </g>

  <!-- ROW 2 -->
  <g transform="translate(400 276)">
    <g transform="translate(-90 0)">
      <path d="M-19 0 L19 0 L13 42 L-13 42 Z" fill="url(#cupGlass)" stroke="#D8CFC2" stroke-width="1.4"/>
      <path d="M-13 42 L13 42 L10 20 L-10 20 Z" fill="#E7B84B" opacity="0.85"/>
      <ellipse cx="0" cy="0" rx="19" ry="3.8" fill="#fff" stroke="#D8CFC2" stroke-width="1.4"/>
    </g>
    <g transform="translate(-54 0)">
      <path d="M-19 0 L19 0 L13 42 L-13 42 Z" fill="url(#cupGlass)" stroke="#D8CFC2" stroke-width="1.4"/>
      <path d="M-13 42 L13 42 L9 16 L-9 16 Z" fill="#B4483F" opacity="0.85"/>
      <ellipse cx="0" cy="0" rx="19" ry="3.8" fill="#fff" stroke="#D8CFC2" stroke-width="1.4"/>
    </g>
    <g transform="translate(-18 0)">
      <path d="M-19 0 L19 0 L13 42 L-13 42 Z" fill="url(#cupGlass)" stroke="#D8CFC2" stroke-width="1.4"/>
      <path d="M-13 42 L13 42 L10 22 L-10 22 Z" fill="#F1C6D0" opacity="0.9"/>
      <ellipse cx="0" cy="0" rx="19" ry="3.8" fill="#fff" stroke="#D8CFC2" stroke-width="1.4"/>
    </g>
    <g transform="translate(18 0)">
      <path d="M-19 0 L19 0 L13 42 L-13 42 Z" fill="url(#cupGlass)" stroke="#D8CFC2" stroke-width="1.4"/>
      <path d="M-13 42 L13 42 L9 18 L-9 18 Z" fill="#6FA65C" opacity="0.85"/>
      <ellipse cx="0" cy="0" rx="19" ry="3.8" fill="#fff" stroke="#D8CFC2" stroke-width="1.4"/>
    </g>
    <g transform="translate(54 0)">
      <path d="M-19 0 L19 0 L13 42 L-13 42 Z" fill="url(#cupGlass)" stroke="#D8CFC2" stroke-width="1.4"/>
      <path d="M-13 42 L13 42 L10 24 L-10 24 Z" fill="#C9A24B" opacity="0.85"/>
      <ellipse cx="0" cy="0" rx="19" ry="3.8" fill="#fff" stroke="#D8CFC2" stroke-width="1.4"/>
    </g>
    <g transform="translate(90 0)">
      <path d="M-19 0 L19 0 L13 42 L-13 42 Z" fill="url(#cupGlass)" stroke="#D8CFC2" stroke-width="1.4"/>
      <path d="M-13 42 L13 42 L9 14 L-9 14 Z" fill="#B4483F" opacity="0.85"/>
      <ellipse cx="0" cy="0" rx="19" ry="3.8" fill="#fff" stroke="#D8CFC2" stroke-width="1.4"/>
    </g>
  </g>

  <!-- ROW 3 -->
  <g transform="translate(400 235)">
    <g transform="translate(-72 0)">
      <path d="M-18 0 L18 0 L12 38 L-12 38 Z" fill="url(#cupGlass)" stroke="#D8CFC2" stroke-width="1.3"/>
      <path d="M-12 38 L12 38 L9 18 L-9 18 Z" fill="#B4483F" opacity="0.85"/>
      <ellipse cx="0" cy="0" rx="18" ry="3.6" fill="#fff" stroke="#D8CFC2" stroke-width="1.3"/>
    </g>
    <g transform="translate(-36 0)">
      <path d="M-18 0 L18 0 L12 38 L-12 38 Z" fill="url(#cupGlass)" stroke="#D8CFC2" stroke-width="1.3"/>
      <path d="M-12 38 L12 38 L9 20 L-9 20 Z" fill="#E7B84B" opacity="0.85"/>
      <ellipse cx="0" cy="0" rx="18" ry="3.6" fill="#fff" stroke="#D8CFC2" stroke-width="1.3"/>
    </g>
    <g transform="translate(0 0)">
      <path d="M-18 0 L18 0 L12 38 L-12 38 Z" fill="url(#cupGlass)" stroke="#D8CFC2" stroke-width="1.3"/>
      <path d="M-12 38 L12 38 L8 16 L-8 16 Z" fill="#F1C6D0" opacity="0.9"/>
      <ellipse cx="0" cy="0" rx="18" ry="3.6" fill="#fff" stroke="#D8CFC2" stroke-width="1.3"/>
    </g>
    <g transform="translate(36 0)">
      <path d="M-18 0 L18 0 L12 38 L-12 38 Z" fill="url(#cupGlass)" stroke="#D8CFC2" stroke-width="1.3"/>
      <path d="M-12 38 L12 38 L9 20 L-9 20 Z" fill="#6FA65C" opacity="0.85"/>
      <ellipse cx="0" cy="0" rx="18" ry="3.6" fill="#fff" stroke="#D8CFC2" stroke-width="1.3"/>
    </g>
    <g transform="translate(72 0)">
      <path d="M-18 0 L18 0 L12 38 L-12 38 Z" fill="url(#cupGlass)" stroke="#D8CFC2" stroke-width="1.3"/>
      <path d="M-12 38 L12 38 L8 14 L-8 14 Z" fill="#C9A24B" opacity="0.85"/>
      <ellipse cx="0" cy="0" rx="18" ry="3.6" fill="#fff" stroke="#D8CFC2" stroke-width="1.3"/>
    </g>
  </g>

  <!-- ROW 4 -->
  <g transform="translate(400 198)">
    <g transform="translate(-54 0)">
      <path d="M-16 0 L16 0 L11 34 L-11 34 Z" fill="url(#cupGlass)" stroke="#D8CFC2" stroke-width="1.2"/>
      <path d="M-11 34 L11 34 L8 18 L-8 18 Z" fill="#B4483F" opacity="0.85"/>
      <ellipse cx="0" cy="0" rx="16" ry="3.3" fill="#fff" stroke="#D8CFC2" stroke-width="1.2"/>
    </g>
    <g transform="translate(-18 0)">
      <path d="M-16 0 L16 0 L11 34 L-11 34 Z" fill="url(#cupGlass)" stroke="#D8CFC2" stroke-width="1.2"/>
      <path d="M-11 34 L11 34 L7 14 L-7 14 Z" fill="#F1C6D0" opacity="0.9"/>
      <ellipse cx="0" cy="0" rx="16" ry="3.3" fill="#fff" stroke="#D8CFC2" stroke-width="1.2"/>
    </g>
    <g transform="translate(18 0)">
      <path d="M-16 0 L16 0 L11 34 L-11 34 Z" fill="url(#cupGlass)" stroke="#D8CFC2" stroke-width="1.2"/>
      <path d="M-11 34 L11 34 L8 20 L-8 20 Z" fill="#E7B84B" opacity="0.85"/>
      <ellipse cx="0" cy="0" rx="16" ry="3.3" fill="#fff" stroke="#D8CFC2" stroke-width="1.2"/>
    </g>
    <g transform="translate(54 0)">
      <path d="M-16 0 L16 0 L11 34 L-11 34 Z" fill="url(#cupGlass)" stroke="#D8CFC2" stroke-width="1.2"/>
      <path d="M-11 34 L11 34 L7 16 L-7 16 Z" fill="#6FA65C" opacity="0.85"/>
      <ellipse cx="0" cy="0" rx="16" ry="3.3" fill="#fff" stroke="#D8CFC2" stroke-width="1.2"/>
    </g>
  </g>

  <!-- ROW 5 -->
  <g transform="translate(400 165)">
    <g transform="translate(-36 0)">
      <path d="M-14 0 L14 0 L10 30 L-10 30 Z" fill="url(#cupGlass)" stroke="#D8CFC2" stroke-width="1.1"/>
      <path d="M-10 30 L10 30 L7 16 L-7 16 Z" fill="#C9A24B" opacity="0.85"/>
      <ellipse cx="0" cy="0" rx="14" ry="3" fill="#fff" stroke="#D8CFC2" stroke-width="1.1"/>
    </g>
    <g transform="translate(0 0)">
      <path d="M-14 0 L14 0 L10 30 L-10 30 Z" fill="url(#cupGlass)" stroke="#D8CFC2" stroke-width="1.1"/>
      <path d="M-10 30 L10 30 L6 12 L-6 12 Z" fill="#B4483F" opacity="0.85"/>
      <ellipse cx="0" cy="0" rx="14" ry="3" fill="#fff" stroke="#D8CFC2" stroke-width="1.1"/>
    </g>
    <g transform="translate(36 0)">
      <path d="M-14 0 L14 0 L10 30 L-10 30 Z" fill="url(#cupGlass)" stroke="#D8CFC2" stroke-width="1.1"/>
      <path d="M-10 30 L10 30 L7 18 L-7 18 Z" fill="#F1C6D0" opacity="0.9"/>
      <ellipse cx="0" cy="0" rx="14" ry="3" fill="#fff" stroke="#D8CFC2" stroke-width="1.1"/>
    </g>
  </g>

  <!-- ROW 6, top -->
  <g transform="translate(400 136)">
    <g transform="translate(-18 0)">
      <path d="M-12 0 L12 0 L8 26 L-8 26 Z" fill="url(#cupGlass)" stroke="#D8CFC2" stroke-width="1"/>
      <path d="M-8 26 L8 26 L5 14 L-5 14 Z" fill="#E7B84B" opacity="0.85"/>
      <ellipse cx="0" cy="0" rx="12" ry="2.6" fill="#fff" stroke="#D8CFC2" stroke-width="1"/>
    </g>
    <g transform="translate(18 0)">
      <path d="M-12 0 L12 0 L8 26 L-8 26 Z" fill="url(#cupGlass)" stroke="#D8CFC2" stroke-width="1"/>
      <path d="M-8 26 L8 26 L5 12 L-5 12 Z" fill="#6FA65C" opacity="0.85"/>
      <ellipse cx="0" cy="0" rx="12" ry="2.6" fill="#fff" stroke="#D8CFC2" stroke-width="1"/>
    </g>
  </g>

  <!-- ROW 7, single cup crowning the tower -->
  <g transform="translate(400 112)">
    <path d="M-10 0 L10 0 L7 22 L-7 22 Z" fill="url(#cupGlass)" stroke="#D8CFC2" stroke-width="1"/>
    <path d="M-7 22 L7 22 L4 12 L-4 12 Z" fill="#B4483F" opacity="0.85"/>
    <ellipse cx="0" cy="0" rx="10" ry="2.2" fill="#fff" stroke="#D8CFC2" stroke-width="1"/>
  </g>

  <text x="400" y="90" font-family="Georgia, serif" font-weight="700" font-size="40" fill="#8C1F3B" text-anchor="middle">?</text>

  <!-- short brunette girl in a hardhat, standing for scale next to the tower -->
  <g transform="translate(190 300)">
    <ellipse cx="0" cy="150" rx="34" ry="8" fill="#000" opacity="0.08"/>
    <!-- legs -->
    <rect x="-16" y="100" width="12" height="50" rx="5" fill="#3B2620"/>
    <rect x="4" y="100" width="12" height="50" rx="5" fill="#3B2620"/>
    <!-- overalls/dress -->
    <path d="M-28 40 Q0 28 28 40 L34 105 Q0 118 -34 105 Z" fill="#F1C6D0"/>
    <!-- arms -->
    <rect x="-40" y="46" width="12" height="42" rx="6" fill="#F6DCC4" transform="rotate(10 -40 46)"/>
    <rect x="28" y="46" width="12" height="42" rx="6" fill="#F6DCC4" transform="rotate(-10 28 46)"/>
    <!-- neck + head -->
    <rect x="-7" y="14" width="14" height="14" fill="#F6DCC4"/>
    <circle cx="0" cy="-4" r="26" fill="#F6DCC4"/>
    <!-- long brown hair, framing face, flowing to shoulders -->
    <path d="M-26 -6 q-10 40 6 66 q-2 -34 4 -50 z" fill="#3B2620"/>
    <path d="M26 -6 q10 40 -6 66 q2 -34 -4 -50 z" fill="#3B2620"/>
    <path d="M-26 -8 q2 -26 26 -26 q24 0 26 26 q-8 -12 -26 -12 q-18 0 -26 12 z" fill="#3B2620"/>
    <!-- hardhat -->
    <g transform="translate(0 -22)">
      <ellipse cx="0" cy="8" rx="30" ry="7" fill="#C9A24B"/>
      <path d="M-26 8 a26 22 0 0 1 52 0 z" fill="#E7B84B"/>
      <rect x="-26" y="4" width="52" height="6" fill="#C9A24B"/>
    </g>
    <!-- eyebrows -->
    <path d="M-13 -8 q5 -3 9 0 M4 -8 q5 -3 9 0" stroke="#3B2620" stroke-width="1.6" fill="none" stroke-linecap="round"/>
    <!-- brown eyes -->
    <ellipse cx="-8" cy="-1" rx="3.4" ry="4.4" fill="#5A3A28"/>
    <ellipse cx="8" cy="-1" rx="3.4" ry="4.4" fill="#5A3A28"/>
    <circle cx="-7" cy="-2.5" r="1" fill="#fff"/>
    <circle cx="9" cy="-2.5" r="1" fill="#fff"/>
    <!-- blush -->
    <circle cx="-15" cy="6" r="4" fill="#F3A6B4" opacity="0.6"/>
    <circle cx="15" cy="6" r="4" fill="#F3A6B4" opacity="0.6"/>
    <!-- smile -->
    <path d="M-6 10 q6 5 12 0" stroke="#8C4A32" stroke-width="1.6" fill="none" stroke-linecap="round"/>
  </g>
</svg>
